<?xml version="1.0" standalone="no"?>
<!DOCTYPE svg PUBLIC "-//W3C//DTD SVG 20010904//EN"
 "http://www.w3.org/TR/2001/REC-SVG-20010904/DTD/svg10.dtd">
<svg version="1.0" xmlns="http://www.w3.org/2000/svg"
 width="524.000000pt" height="476.000000pt" viewBox="0 0 524.000000 476.000000"
 preserveAspectRatio="xMidYMid meet">

<g transform="translate(0.000000,476.000000) scale(0.100000,-0.100000)"
fill="#000000" stroke="none">
<path d="M2616 3710 c-99 -39 -156 -123 -156 -228 0 -73 15 -114 60 -166 94
-106 255 -112 354 -12 131 130 80 350 -94 411 -56 20 -104 18 -164 -5z"/>
<path d="M1912 3418 c-119 -116 -112 -109 -142 -141 l-24 -28 84 -84 85 -85
-49 -42 c-114 -97 -129 -251 -34 -354 71 -77 161 -102 262 -72 39 12 116 78
143 123 12 19 13 19 40 -11 15 -17 56 -57 90 -88 l61 -57 126 122 c69 67 126
125 126 129 0 5 -151 160 -336 345 l-336 336 -96 -93z"/>
<path d="M3025 3171 l-340 -341 132 -127 131 -128 85 85 86 85 -2 80 c-1 68 3
87 26 131 50 98 134 142 247 131 l60 -7 77 81 c43 44 79 84 81 88 1 4 -53 65
-120 135 l-123 127 -340 -340z"/>
<path d="M1207 2702 l-127 -128 257 -255 c533 -527 674 -664 686 -664 7 0 158
149 337 330 l325 330 -127 125 -128 126 -205 -206 -205 -205 -338 338 c-185
185 -339 337 -342 337 -3 0 -63 -58 -133 -128z"/>
<path d="M1577 1739 c-9 -5 -14 -16 -11 -24 4 -9 0 -12 -14 -8 -11 2 -23 0
-26 -6 -4 -6 -1 -11 7 -11 19 0 30 -45 17 -69 -5 -11 -24 -31 -42 -45 l-33
-25 23 -21 c29 -28 24 -44 -16 -48 -37 -4 -40 -11 -12 -35 18 -15 20 -29 20
-127 l0 -110 -39 -6 c-39 -6 -40 -7 -36 -43 2 -20 4 -39 4 -43 1 -5 60 -8 132
-8 l130 0 -3 48 c-3 45 -4 47 -33 47 l-30 0 -3 111 c-2 100 -1 112 18 129 29
26 25 38 -10 32 -36 -8 -44 3 -28 40 14 33 17 132 4 130 -17 -4 -17 22 1 40
15 15 16 23 8 40 -8 16 -15 19 -28 12z m-5 -161 c-15 -15 -26 -4 -18 18 5 13
9 15 18 6 9 -9 9 -15 0 -24z m-4 -271 c3 -102 2 -107 -18 -107 -19 0 -20 6
-20 111 0 100 2 110 18 107 15 -3 17 -18 20 -111z"/>
<path d="M1152 1542 c-9 -6 -12 -57 -10 -218 l3 -209 94 1 c84 2 96 4 117 26
32 32 48 126 40 240 -6 93 -17 128 -46 145 -23 15 -181 27 -198 15z m143 -212
l0 -145 -26 -3 c-22 -3 -27 2 -33 29 -8 40 -8 217 0 247 5 18 13 22 33 20 l26
-3 0 -145z"/>
<path d="M1740 1538 c0 -7 -1 -105 -2 -218 l-3 -205 38 -3 37 -3 0 105 c0 58
4 106 8 106 5 0 26 -46 48 -102 35 -92 42 -103 65 -106 36 -4 38 7 36 238 l-2
195 -35 0 -35 0 0 -85 c0 -47 -4 -87 -9 -90 -5 -3 -24 31 -43 75 -19 43 -39
85 -45 92 -13 17 -58 17 -58 1z"/>
<path d="M2096 1538 c-8 -25 -76 -396 -76 -412 0 -14 8 -17 43 -14 36 3 42 6
45 28 7 65 11 71 45 68 30 -3 32 -6 37 -48 5 -44 6 -45 43 -48 24 -2 39 1 42
10 3 7 -10 94 -30 193 -19 99 -35 190 -35 201 0 14 -8 24 -22 28 -39 10 -88 7
-92 -6z m72 -203 c11 -67 9 -75 -19 -75 -16 0 -19 7 -19 44 0 58 11 109 21 99
4 -4 12 -35 17 -68z"/>
<path d="M2390 1543 c-28 -10 -59 -45 -65 -74 -12 -52 4 -86 70 -151 66 -66
89 -113 64 -129 -24 -15 -42 -5 -51 29 -8 28 -13 32 -43 32 -43 0 -49 -10 -35
-58 14 -54 41 -75 103 -80 46 -4 57 -1 85 23 37 31 49 78 33 127 -6 19 -40 63
-76 98 -64 64 -78 93 -53 118 20 20 35 14 45 -20 8 -30 13 -33 43 -30 19 1 36
5 39 8 12 12 -25 89 -49 101 -25 13 -83 16 -110 6z"/>
<path d="M2791 1536 c-33 -18 -50 -53 -51 -104 0 -40 5 -48 70 -114 53 -54 70
-78 70 -99 0 -32 -12 -43 -40 -34 -14 4 -20 15 -20 36 0 27 -3 29 -35 29 -58
0 -60 -56 -5 -111 24 -25 37 -29 80 -29 45 0 56 4 81 31 23 25 29 40 29 76 0
58 -11 77 -81 143 -48 46 -59 62 -59 88 0 18 5 33 10 34 30 4 35 0 40 -27 5
-27 9 -30 39 -28 18 0 38 6 43 11 16 16 -28 98 -55 106 -37 10 -91 6 -116 -8z"/>
<path d="M3073 1539 c-46 -24 -55 -62 -51 -219 4 -187 18 -210 126 -210 105 0
132 43 132 210 0 188 -19 222 -123 227 -34 1 -72 -2 -84 -8z m96 -63 c8 -9 11
-60 9 -157 -3 -133 -4 -144 -22 -147 -37 -7 -46 24 -46 156 0 68 5 132 10 143
13 22 33 25 49 5z"/>
<path d="M3363 1515 c-34 -34 -35 -38 -30 -88 4 -48 9 -56 65 -107 71 -66 87
-92 72 -120 -16 -30 -48 -26 -56 8 -11 50 -11 50 -46 43 -40 -8 -47 -34 -23
-84 19 -41 50 -57 111 -57 37 0 51 6 75 29 24 24 29 38 29 76 0 61 -10 79 -82
147 -52 50 -59 60 -56 90 4 46 38 46 52 0 8 -30 12 -32 40 -26 17 3 34 8 39
11 14 8 -5 58 -34 86 -23 21 -39 27 -75 27 -39 0 -51 -5 -81 -35z"/>
<path d="M3620 1329 l0 -220 43 3 42 3 3 209 c3 229 3 226 -55 226 l-33 0 0
-221z"/>
<path d="M3836 1538 c-6 -21 -76 -403 -76 -417 0 -8 14 -11 43 -9 40 3 42 5
45 38 5 45 18 60 52 60 24 0 28 -5 36 -47 9 -46 10 -48 47 -51 47 -4 47 -13
-1 238 l-37 195 -53 3 c-36 2 -53 -1 -56 -10z m69 -185 c12 -84 12 -88 -12
-91 -20 -3 -23 1 -23 30 0 49 11 108 21 108 4 0 11 -21 14 -47z"/>
<path d="M4074 1537 c-2 -7 -3 -105 -2 -217 l3 -205 95 0 95 0 3 28 c3 26 2
27 -47 27 l-51 0 0 184 c0 201 2 196 -61 196 -16 0 -32 -6 -35 -13z"/>
<path d="M2034 1048 c-9 -10 -36 -155 -59 -310 -4 -24 -1 -28 19 -28 28 0 43
16 48 50 2 19 10 26 31 28 23 3 27 0 27 -22 0 -13 3 -31 6 -40 7 -17 49 -22
59 -7 7 13 -46 315 -58 327 -12 12 -64 14 -73 2z m51 -152 c9 -45 3 -71 -15
-71 -17 0 -25 43 -16 81 9 34 24 29 31 -10z"/>
<path d="M2708 1053 c-22 -5 -22 1 -2 -153 25 -204 21 -190 54 -190 27 0 29 3
35 48 19 143 36 165 48 62 12 -106 14 -112 45 -108 27 3 27 4 44 138 23 187
23 210 -1 210 -26 0 -30 -8 -37 -67 -10 -90 -15 -113 -24 -113 -6 0 -10 12
-10 27 0 14 -5 55 -11 90 -9 51 -15 63 -28 61 -11 -2 -18 -19 -24 -58 -19
-126 -18 -125 -27 -109 -5 8 -12 48 -17 89 -8 74 -13 81 -45 73z"/>
<path d="M3353 1043 c-3 -7 -3 -35 1 -61 5 -43 -5 -84 -18 -71 -3 3 -16 34
-30 70 -20 54 -28 64 -50 67 l-26 3 0 -171 0 -171 28 3 27 3 -4 83 c-2 45 1
82 6 82 5 0 24 -37 44 -82 27 -65 39 -84 57 -86 22 -3 22 -3 22 166 l0 170
-26 5 c-16 3 -28 0 -31 -10z"/>
<path d="M3493 1036 c-28 -24 -28 -25 -28 -144 0 -107 2 -124 21 -149 23 -31
62 -40 94 -23 16 9 25 8 36 0 7 -7 21 -10 29 -6 13 5 15 21 13 88 l-3 83 -34
3 c-44 4 -60 -11 -38 -36 9 -10 17 -28 17 -40 0 -25 -36 -65 -53 -59 -16 5
-22 219 -7 248 17 31 44 20 50 -21 4 -29 10 -36 33 -38 34 -4 43 15 27 62 -19
57 -106 75 -157 32z"/>
<path d="M1740 879 l0 -170 33 3 32 3 5 75 c6 84 12 82 45 -15 17 -48 26 -61
44 -63 40 -6 42 10 11 104 l-31 91 31 67 c16 37 30 70 30 72 0 2 -16 4 -35 4
-25 0 -37 -5 -41 -17 -14 -45 -38 -93 -46 -93 -4 0 -8 25 -8 55 l0 55 -35 0
-35 0 0 -171z"/>
<path d="M2210 957 c0 -52 3 -129 7 -171 l6 -77 31 3 31 3 -3 78 c-2 70 -1 78
15 75 12 -2 22 -23 34 -71 22 -83 24 -87 55 -87 20 0 24 5 24 28 0 16 -7 51
-15 78 -14 46 -13 51 6 92 15 30 19 52 15 77 -11 56 -27 65 -122 65 l-84 0 0
-93z m138 4 c3 -35 0 -42 -20 -50 -33 -12 -38 -6 -38 48 0 56 4 62 33 52 17
-6 23 -18 25 -50z"/>
<path d="M2511 1003 c-16 -72 -51 -262 -51 -279 0 -9 10 -14 30 -14 24 0 31 5
36 28 10 48 13 52 37 52 19 0 25 -7 33 -37 7 -31 14 -39 37 -41 33 -4 34 1 7
134 -45 226 -36 204 -80 204 -37 0 -38 -1 -49 -47z m65 -108 c7 -52 1 -75 -21
-75 -16 0 -20 34 -9 89 9 44 22 38 30 -14z"/>
<path d="M3031 1003 c-5 -27 -15 -73 -20 -103 -6 -30 -15 -79 -21 -108 -15
-78 -14 -82 20 -82 24 0 31 5 35 28 9 41 20 57 41 57 14 0 21 -11 28 -42 7
-36 13 -43 33 -43 13 0 26 6 28 13 3 7 -6 73 -20 146 -14 74 -25 144 -25 157
0 22 -4 24 -44 24 l-44 0 -11 -47z m63 -85 c11 -42 7 -86 -9 -92 -22 -8 -29
16 -21 69 8 49 20 58 30 23z"/>
</g>
</svg>
